<svg xmlns="http://www.w3.org/2000/svg" version="1.1" xmlns:xlink="http://www.w3.org/1999/xlink" width="512" height="512" x="0" y="0" viewBox="0 0 512.001 512" style="enable-background:new 0 0 512 512" xml:space="preserve" class=""><g><path d="m508.91 79.617-37.32-27.133V16.738c0-6.89-5.61-12.5-12.5-12.5h-19.906c-6.895 0-12.5 5.61-12.5 12.5v3.098L403.012 2.629c-4.82-3.504-12.09-3.504-16.907 0L280.207 79.617a7.497 7.497 0 0 0-1.656 10.477 7.492 7.492 0 0 0 10.476 1.656l11.813-8.586v91.23h-10.95a7.497 7.497 0 0 0-7.5 7.5 7.5 7.5 0 0 0 7.5 7.5H432a7.5 7.5 0 0 0 7.5-7.5c0-4.144-3.355-7.5-7.5-7.5h-5.871V102.82c0-6.195-5.04-11.238-11.238-11.238h-40.668c-6.196 0-11.235 5.043-11.235 11.238v71.575H315.84L315.836 73.5c.05-.52.613-1.629.957-1.934l77.766-56.539 77.726 56.508c.39.356.945 1.445.992 1.903v100.957H468c-4.14 0-7.5 3.355-7.5 7.5s3.36 7.5 7.5 7.5h31.227c4.144 0 7.5-3.356 7.5-7.5s-3.356-7.5-7.5-7.5H488.28v-91.23l11.813 8.585a7.497 7.497 0 0 0 10.476-1.656 7.502 7.502 0 0 0-1.66-10.477zm-130.926 26.965h33.145v67.813h-33.145zm78.606-65.004-14.906-10.836V19.238h14.906zm0 0" fill="#f7f0d6" opacity="1" data-original="#000000" class=""></path><path d="m479.426 325.355-39.637-28.816c-.004 0-.008-.004-.012-.008l-17.91-13.02v-58.054c0-6.895-5.605-12.5-12.5-12.5h-34.879c-6.89 0-12.5 5.605-12.5 12.5v14.523l-43.508-31.632c-4.82-3.504-12.09-3.504-16.906 0l-56.437 41.03v-74.476l15.922 11.578a7.504 7.504 0 0 0 10.476-1.656 7.51 7.51 0 0 0-1.656-10.48l-31.86-23.157c-.003-.007-.011-.011-.019-.015l-12.445-9.05V98.66c0-6.89-5.606-12.5-12.5-12.5h-25.082c-6.895 0-12.5 5.61-12.5 12.5v7.05l-30.536-22.194a11.508 11.508 0 0 0-.925-.614c-.043-.027-.09-.047-.133-.074-2.16-1.266-4.738-1.96-7.395-1.96-2.644 0-5.214.69-7.367 1.944-.055.032-.11.06-.164.09-.316.192-.625.395-.926.614l-93.062 67.656-.02.015-31.855 23.16a7.504 7.504 0 0 0-1.656 10.477 7.49 7.49 0 0 0 6.074 3.09 7.46 7.46 0 0 0 4.402-1.434l15.922-11.574v110.88H13.687a7.5 7.5 0 1 0 0 15H174.43l-33.797 24.57a7.5 7.5 0 1 0 8.82 12.133l23.688-17.223V468.3h-20.188a7.5 7.5 0 1 0 0 15h314.149a7.5 7.5 0 0 0 7.5-7.5c0-4.145-3.356-7.5-7.5-7.5h-20.188v-41.66a7.5 7.5 0 1 0-15 0v41.66h-78.262V357.14c0-7.23-5.882-13.114-13.109-13.114h-61.027c-7.23 0-13.11 5.883-13.11 13.114V468.3h-78.261l-.004-157.7c.05-.519.605-1.617.953-1.93l120.937-87.925 120.89 87.89c.392.356.946 1.446.993 1.903v80.098c0 4.144 3.356 7.5 7.5 7.5 4.145 0 7.5-3.356 7.5-7.5v-70.371l23.691 17.222a7.486 7.486 0 0 0 10.477-1.656 7.504 7.504 0 0 0-1.656-10.477zm-198.024 33.672h57.25v109.274h-57.25zm-90.93-257.863h20.083v30.055l-20.082-14.602zm-147.64 64.078c.047-.523.61-1.625.953-1.933l92.7-67.395 92.66 67.363c.39.356.945 1.446.992 1.899v95.105l-35.078 25.5h-22.832v-29.144c0-4.14-3.36-7.5-7.5-7.5-4.141 0-7.5 3.36-7.5 7.5v29.144h-41.485V203.63h41.485v14.012c0 4.14 3.359 7.5 7.5 7.5 4.14 0 7.5-3.36 7.5-7.5v-17.125c0-6.555-5.332-11.887-11.887-11.887h-47.711c-6.555 0-11.887 5.332-11.887 11.887v85.27h-57.91zm334.16 62.715h29.88v44.648l-29.88-21.722zm0 0" fill="#f7f0d6" opacity="1" data-original="#000000" class=""></path><path d="M379.46 344.027c-6.894 0-12.5 5.606-12.5 12.5v65.168c0 6.895 5.606 12.5 12.5 12.5h24.938c6.895 0 12.5-5.605 12.5-12.5v-65.168c0-6.894-5.605-12.5-12.5-12.5zm22.438 75.168h-19.937v-60.168h19.937zM215 344.027c-6.89 0-12.5 5.606-12.5 12.5v65.168c0 6.895 5.61 12.5 12.5 12.5h24.941c6.891 0 12.5-5.605 12.5-12.5v-65.168c0-6.894-5.609-12.5-12.5-12.5zm22.441 75.168H217.5v-60.168h19.941zm0 0" fill="#f7f0d6" opacity="1" data-original="#000000" class=""></path></g></svg>