<svg xmlns="http://www.w3.org/2000/svg" version="1.1" xmlns:xlink="http://www.w3.org/1999/xlink"
    width="512" height="512" x="0" y="0" viewBox="0 0 68 68"
    style="enable-background:new 0 0 512 512" xml:space="preserve" class=""><g><path d="m49.07 43.697-.577-.878a16.59 16.59 0 0 1-4.109.506c-5.74 0-11.035-2.86-14.173-7.649a17.037 17.037 0 0 1-1.238-2.24 4.58 4.58 0 0 1-.65.042c-3.015 0-5.461-2.457-5.461-5.482.01-2.86 2.23-5.223 5.027-5.44a16.96 16.96 0 0 1 2.684-5.956l-2.767-2.116-12.17 9.775-.134.114-7.133 5.73c-.95.732-2.044 1.114-3.19 1.114h-.01l-.048 30.23a1.996 1.996 0 0 0 1.993 2l13.405.017.02-16.619a3.04 3.04 0 0 1 3.045-3.024l9.084.02a3.033 3.033 0 0 1 3.035 3.035l-.031 16.62 13.778.017a1.996 1.996 0 0 0 1.998-1.992l.018-10.908-2.354-3.592a3.076 3.076 0 0 1-.041-3.324z" fill="#546768" opacity="1" data-original="#000000" class=""></path><path d="m7.079 28.492 20.696-16.63L31.863 15a16.395 16.395 0 0 1 3.23-2.756 17.276 17.276 0 0 1 2.22-1.228L29.571 5.1a3.082 3.082 0 0 0-3.747.041L13.582 14.96l.01-3.81h.702c1.218 0 2.209-1.021 2.209-2.29.01-1.26-.98-2.292-2.199-2.292l-8.68-.01c-1.219 0-2.21 1.021-2.21 2.28v.021c0 1.26.991 2.282 2.199 2.282h.733l-.01 9.63-3.066 2.457c-1.404 1.094-1.683 3.149-.64 4.604 1.052 1.456 3.045 1.755 4.449.66zM32.07 52.398h-.002c-.57 0-1.03.46-1.032 1.03l-.004 2.527c-.001.57.46 1.033 1.03 1.034h.002c.57 0 1.032-.46 1.033-1.03l.004-2.527a1.032 1.032 0 0 0-1.031-1.034zM65.215 50.231l-6.317-9.63a1.001 1.001 0 0 0-1.394-.29l-.65.423-1.156-1.765a16.488 16.488 0 0 1-2.054 1.59 16.39 16.39 0 0 1-3.108 1.6l1.24 1.9-.651.422c-.465.31-.599.94-.29 1.404l6.308 9.631c1.455 2.23 4.449 2.85 6.679 1.394 2.272-1.493 2.819-4.513 1.393-6.679zM31.935 34.54c4.5 6.865 13.709 8.785 20.573 4.295 6.875-4.511 8.795-13.719 4.294-20.583-4.49-6.865-13.708-8.785-20.583-4.284-6.864 4.5-8.784 13.708-4.284 20.573zm12.439-18.735c5.853 0 10.59 4.738 10.59 10.591s-4.737 10.591-10.59 10.591-10.601-4.738-10.601-10.59 4.748-10.592 10.6-10.592z" fill="#546768" opacity="1" data-original="#000000" class=""></path></g></svg>