<svg xmlns:dc="http://purl.org/dc/elements/1.1/" xmlns:cc="http://creativecommons.org/ns#"
    xmlns:rdf="http://www.w3.org/1999/02/22-rdf-syntax-ns#" xmlns:svg="http://www.w3.org/2000/svg"
    xmlns="http://www.w3.org/2000/svg"
    xmlns:sodipodi="http://sodipodi.sourceforge.net/DTD/sodipodi-0.dtd"
    xmlns:inkscape="http://www.inkscape.org/namespaces/inkscape" viewBox="0 0 16.933333 16.933333"
    version="1.1" x="0px" y="0px">
    <g transform="translate(0,-280.06665)">
        <path
            style="color:#f7f0d6;font-style:normal;font-variant:normal;font-weight:normal;font-stretch:normal;font-size:medium;line-height:normal;font-family:sans-serif;font-variant-ligatures:normal;font-variant-position:normal;font-variant-caps:normal;font-variant-numeric:normal;font-variant-alternates:normal;font-feature-settings:normal;text-indent:0;text-align:start;text-decoration:none;text-decoration-line:none;text-decoration-style:solid;text-decoration-color:#f7f0d6;letter-spacing:normal;word-spacing:normal;text-transform:none;writing-mode:lr-tb;direction:ltr;text-orientation:mixed;dominant-baseline:auto;baseline-shift:baseline;text-anchor:start;white-space:normal;shape-padding:0;clip-rule:nonzero;display:inline;overflow:visible;visibility:visible;opacity:1;isolation:auto;mix-blend-mode:normal;color-interpolation:sRGB;color-interpolation-filters:linearRGB;solid-color:#f7f0d6;solid-opacity:1;vector-effect:none;fill:#f7f0d6;fill-opacity:1;fill-rule:nonzero;stroke:none;stroke-width:0.5291667;stroke-linecap:butt;stroke-linejoin:round;stroke-miterlimit:4;stroke-dasharray:none;stroke-dashoffset:0;stroke-opacity:1;paint-order:normal;color-rendering:auto;image-rendering:auto;shape-rendering:auto;text-rendering:auto;enable-background:accumulate"
            d="m 3.9674564,281.12497 a 0.26460982,0.26460982 0 0 0 -0.2635515,0.26407 v 4.38836 l -2.5683105,2.56832 a 0.26460982,0.26460982 0 0 0 0.1875896,0.4532 h 2.3807209 v 5.82032 a 0.26460982,0.26460982 0 0 0 0.2635515,0.26355 h 3.1760319 a 0.26460982,0.26460982 0 0 0 0.2656153,-0.26355 v -3.43959 h 1.9502702 c 0.5979054,-1.24788 1.8713982,-2.11718 3.3408942,-2.11718 0.180102,0 0.355758,0.0177 0.529166,0.0429 v -0.30644 h 2.380721 a 0.26460982,0.26460982 0 0 0 0.18759,-0.4532 l -7.1447822,-7.1422 a 0.26460982,0.26460982 0 0 0 -0.3725863,0 l -1.930109,1.92753 v -1.74201 a 0.26460982,0.26460982 0 0 0 -0.2656152,-0.26407 z m 5.5619387,13.54491 a 0.26460982,0.26460982 0 0 0 0.095594,0.15658 c -0.034158,-0.0507 -0.063897,-0.10415 -0.095594,-0.15658 z" />
        <path
            style="color:#f7f0d6;font-style:normal;font-variant:normal;font-weight:normal;font-stretch:normal;font-size:medium;line-height:normal;font-family:sans-serif;font-variant-ligatures:normal;font-variant-position:normal;font-variant-caps:normal;font-variant-numeric:normal;font-variant-alternates:normal;font-feature-settings:normal;text-indent:0;text-align:start;text-decoration:none;text-decoration-line:none;text-decoration-style:solid;text-decoration-color:#f7f0d6;letter-spacing:normal;word-spacing:normal;text-transform:none;writing-mode:lr-tb;direction:ltr;text-orientation:mixed;dominant-baseline:auto;baseline-shift:baseline;text-anchor:start;white-space:normal;shape-padding:0;clip-rule:nonzero;display:inline;overflow:visible;visibility:visible;opacity:1;isolation:auto;mix-blend-mode:normal;color-interpolation:sRGB;color-interpolation-filters:linearRGB;solid-color:#f7f0d6;solid-opacity:1;vector-effect:none;fill:#f7f0d6;fill-opacity:1;fill-rule:nonzero;stroke:none;stroke-width:0.52916688;stroke-linecap:butt;stroke-linejoin:round;stroke-miterlimit:4;stroke-dasharray:none;stroke-dashoffset:0;stroke-opacity:1;paint-order:normal;color-rendering:auto;image-rendering:auto;shape-rendering:auto;text-rendering:auto;enable-background:accumulate"
            d="m 12.700268,289.59215 c -1.750404,0 -3.1760323,1.42514 -3.1760323,3.17552 0,1.75037 1.4256283,3.17397 3.1760323,3.17397 1.750377,0 3.173439,-1.4236 3.173439,-3.17397 0,-1.75038 -1.423062,-3.17552 -3.173439,-3.17552 z m -0.0042,1.5875 a 0.26460985,0.26460985 0 0 1 0.267679,0.26769 v 1.05471 h 1.054709 a 0.26465002,0.26465002 0 1 1 0,0.52917 h -1.054709 v 1.05472 a 0.26465002,0.26465002 0 1 1 -0.529166,0 v -1.05472 h -1.054709 a 0.26465002,0.26465002 0 1 1 0,-0.52917 h 1.054709 v -1.05471 a 0.26460985,0.26460985 0 0 1 0.261487,-0.26769 z" />
    </g>
</svg>